<svg width="330" height="49" class="xl:w-auto w-[211px]" viewBox="0 0 330 49" fill="none" xmlns="http://www.w3.org/2000/svg"><path d="M314.484 38.9854C305.543 38.9854 299.119 32.6683 299.119 23.7281C299.119 14.7878 305.543 8.4707 314.484 8.4707C323.477 8.4707 329.955 14.7878 329.955 23.7281C329.955 32.6683 323.477 38.9854 314.484 38.9854ZM314.484 32.936C319.355 32.936 322.728 29.1886 322.728 23.7281C322.728 18.2675 319.355 14.5201 314.484 14.5201C309.665 14.5201 306.293 18.2675 306.293 23.7281C306.293 29.1886 309.665 32.936 314.484 32.936Z" fill="black"></path><path d="M262.693 38.5683L251.986 8.91016H259.642L266.173 28.9856L272.651 8.91016H279.289L285.82 28.9856L292.244 8.91016H299.739L289.032 38.5683H282.34L275.863 19.2959L269.385 38.5683H262.693Z" fill="black"></path><path d="M246.092 38.9929C240.417 38.9929 236.188 35.5667 236.188 29.2496V14.6882H231.905V8.90648H236.188V2.75H243.308V8.90648H249.679V14.6882H243.308V28.6072C243.308 31.3375 244.807 32.8365 247.056 32.8365C248.019 32.8365 249.143 32.6223 250.054 32.3011V38.2434C248.876 38.7253 247.591 38.9929 246.092 38.9929Z" fill="black"></path><path d="M206.925 48.3116L211.262 38.0865L199.645 8.91016H207.354L214.955 29.0392L222.504 8.91016H229.999L214.367 48.3116H206.925Z" fill="black"></path><path d="M194.019 38.9929C188.344 38.9929 184.115 35.5667 184.115 29.2496V14.6882H179.832V8.90648H184.115V2.75H191.235V8.90648H197.606V14.6882H191.235V28.6072C191.235 31.3375 192.734 32.8365 194.982 32.8365C195.946 32.8365 197.07 32.6223 197.98 32.3011V38.2434C196.803 38.7253 195.518 38.9929 194.019 38.9929Z" fill="black"></path><path d="M157.887 38.5572V8.89898H165.007V13.0747C166.506 10.3444 169.932 8.4707 173.412 8.4707C174.804 8.4707 176.035 8.68484 176.999 9.05959V15.8585C175.821 15.3767 174.429 15.109 173.144 15.109C168.754 15.109 165.007 18.91 165.007 27.6361V38.5572H157.887Z" fill="black"></path><path d="M139.332 38.9854C130.392 38.9854 123.968 32.6683 123.968 23.7281C123.968 14.7878 130.392 8.4707 139.332 8.4707C148.326 8.4707 154.804 14.7878 154.804 23.7281C154.804 32.6683 148.326 38.9854 139.332 38.9854ZM139.332 32.936C144.204 32.936 147.577 29.1886 147.577 23.7281C147.577 18.2675 144.204 14.5201 139.332 14.5201C134.514 14.5201 131.141 18.2675 131.141 23.7281C131.141 29.1886 134.514 32.936 139.332 32.936Z" fill="black"></path><path d="M98.252 38.5641V1.08984H123.681V7.29986H105.533V15.9725H120.201V22.1825H105.533V38.5641H98.252Z" fill="black"></path><rect x="81.2139" y="1.26367" width="37.4544" height="16.1054" transform="rotate(90 81.2139 1.26367)" fill="black"></rect><rect x="59.8652" y="1.26172" width="37.4544" height="16.1054" transform="rotate(90 59.8652 1.26172)" fill="black"></rect><circle cx="9.11401" cy="9.35229" r="8.61451" transform="rotate(-180 9.11401 9.35229)" fill="black"></circle><circle cx="9.11401" cy="30.6257" r="8.61451" transform="rotate(-180 9.11401 30.6257)" fill="black"></circle><circle cx="30.5378" cy="9.35229" r="8.61451" transform="rotate(-180 30.5378 9.35229)" fill="black"></circle><circle cx="30.5378" cy="30.6257" r="8.61451" transform="rotate(-180 30.5378 30.6257)" fill="black"></circle></svg>
